# xmcd CD database file
#
# Track frame offsets:
#	150
#	22648
#	39557
#	55525
#	73344
#	90279
#	106091
#	126400
#	141865
#	156826
#	171885
#	188629
#	207512
#	223127
#
# Disc length: 3240 seconds
#
# Revision: 0
# Processed by: cddbd v1.5.2PL0 Copyright (c) Steve Scherf et al.
# Submitted via: CDex 1.51
#
DISCID=c00ca60e
DTITLE=Collin Raye - Never Going Back
DYEAR=2009
DGENRE=Country
TTITLE0=Never Going Back
TTITLE1=Take Care of You
TTITLE2=Don't Tell Me You're Not in Love
TTITLE3=Without You (with Susan Ashton)
TTITLE4=Mid-Life Chrysler
TTITLE5=You Get Me
TTITLE6=Where It Leads
TTITLE7=The Cross
TTITLE8=Stuck in the Middle with You
TTITLE9=The Only Jesus
TTITLE10=I Love You This Much
TTITLE11=She's With Me
TTITLE12=Helping Hands
TTITLE13=Faithfully
EXTD=YEAR: 2009
EXTT0=
EXTT1=
EXTT2=
EXTT3=
EXTT4=
EXTT5=
EXTT6=
EXTT7=
EXTT8=
EXTT9=
EXTT10=
EXTT11=
EXTT12=
EXTT13=
PLAYORDER=
